<svg width="32" height="32" viewBox="0 0 32 32" fill="none" xmlns="http://www.w3.org/2000/svg">
<circle cx="16" cy="16" r="16" fill="white"/>
<path fill-rule="evenodd" clip-rule="evenodd" d="M9.99326 12.2491C10.2041 11.8992 11.3667 10.6293 12.1952 10.6676C12.4431 10.6888 12.6622 10.8381 12.8402 11.012H12.8409C13.249 11.4118 14.4198 12.9207 14.4855 13.2384C14.6478 14.0175 13.7187 14.4666 14.0028 15.2519C14.7272 17.0244 15.9754 18.2725 17.7488 18.9961C18.5334 19.2809 18.9826 18.3526 19.7618 18.5141C20.0795 18.5805 21.5892 19.7506 21.9884 20.1593V20.1593C22.1616 20.3366 22.3122 20.5564 22.3328 20.8042C22.3636 21.6771 21.0147 22.8554 20.7518 23.006C20.1315 23.4503 19.3222 23.4421 18.3355 22.9834C15.5824 21.838 11.1826 17.5214 10.0159 14.6645C9.56943 13.6834 9.53931 12.8687 9.99326 12.2491Z" stroke="black" stroke-linecap="round" stroke-linejoin="round"/>
<path d="M17.7102 10.8335C20.1782 11.1075 22.1269 13.0542 22.4042 15.5215" stroke="black" stroke-linecap="round" stroke-linejoin="round"/>
<path d="M17.7102 13.1953C18.8902 13.4253 19.8122 14.3473 20.0422 15.5273" stroke="black" stroke-linecap="round" stroke-linejoin="round"/>
</svg>
